<?xml version="1.0" encoding="UTF-8"?>
<svg xmlns="http://www.w3.org/2000/svg" viewBox="0 0 56 16" role="img" aria-label="Betway logo">
  <title>Betway logo</title>
  <path fill="var(--2f3eb740, #000)" d="M46.0833 15.8634C45.7211 15.7736 45.3674 15.6521 45.0266 15.5003L45.789 13.4592C45.9709 13.5591 46.1628 13.6397 46.3615 13.6999C46.5571 13.7666 46.7619 13.8028 46.9686 13.8073C47.1526 13.8158 47.3355 13.7746 47.498 13.688C47.6508 13.5816 47.768 13.4319 47.8344 13.2583L48.3218 12.169L44.7323 4.09386H48.0274L49.744 9.01932L51.4445 4.09386H54.5714L50.3382 14.0844C50.1084 14.7018 49.6775 15.2245 49.1143 15.5691C48.5584 15.8671 47.9339 16.0152 47.3028 15.9988C46.8923 16.003 46.4828 15.9576 46.0833 15.8634ZM2.69827 12.5182C2.12082 12.3955 1.5532 12.2307 1 12.0251L1 1H4.03532V4.12716C4.27752 4.05611 4.52429 4.00155 4.77393 3.96387C5.06881 3.92064 5.36652 3.89946 5.66457 3.90049C6.23092 3.88945 6.79307 3.99933 7.31324 4.22277C7.78174 4.4301 8.19907 4.73698 8.53599 5.12192C8.87398 5.518 9.13045 5.97646 9.29078 6.47119C9.46729 7.00892 9.55505 7.57162 9.55064 8.13736C9.56674 8.83423 9.44624 9.52754 9.19589 10.1784C8.97961 10.7246 8.63761 11.2125 8.19742 11.6029C7.75634 11.986 7.23897 12.2719 6.67922 12.4419C6.05847 12.6311 5.41225 12.7242 4.76314 12.718C4.06969 12.7246 3.37749 12.6576 2.69827 12.5182ZM4.45045 6.19403C4.30939 6.22025 4.17033 6.25615 4.03424 6.30145V10.3836C4.15688 10.417 4.28148 10.4429 4.40732 10.461C4.54811 10.4798 4.6901 10.4884 4.83215 10.4868C5.07046 10.495 5.30763 10.4504 5.52654 10.3562C5.74545 10.262 5.94065 10.1206 6.09804 9.94211C6.45857 9.46397 6.63114 8.87098 6.58326 8.27486C6.63187 7.69729 6.46186 7.1225 6.10666 6.66348C5.95556 6.49501 5.76946 6.36134 5.56128 6.27174C5.35311 6.18214 5.12786 6.13876 4.90116 6.14461C4.74957 6.14471 4.59844 6.16128 4.45045 6.19403ZM12.5763 12.4247C12.0549 12.2485 11.5782 11.9618 11.1787 11.5844C10.7792 11.207 10.4666 10.7479 10.2623 10.2386C10.0202 9.63164 9.90219 8.98264 9.91509 8.32965C9.90341 7.68905 10.0158 7.05221 10.2461 6.454C10.4475 5.93375 10.7539 5.46024 11.1465 5.06284C11.532 4.67952 11.9968 4.38443 12.5083 4.19806C13.0551 3.99751 13.6337 3.89671 14.2163 3.90049C14.7766 3.87477 15.3359 3.97036 15.8556 4.18066C16.3754 4.39096 16.8432 4.71099 17.2268 5.1187C18.0578 6.18951 18.4615 7.52886 18.3601 8.87859H12.8609C12.855 9.09576 12.8945 9.31178 12.9769 9.5129C13.0593 9.71403 13.1828 9.89586 13.3396 10.0468C13.4964 10.1978 13.6831 10.3146 13.8876 10.3898C14.0922 10.465 14.3103 10.4969 14.5279 10.4835C14.866 10.4927 15.2015 10.4221 15.507 10.2773C15.8018 10.1185 16.0592 9.89873 16.2618 9.63272L18.1207 11.098C17.9328 11.331 17.7198 11.5429 17.4856 11.7297C16.9418 12.1654 16.2985 12.4607 15.6126 12.5891C15.1699 12.6736 14.7199 12.7143 14.2691 12.7105C13.6933 12.7116 13.1215 12.6146 12.5784 12.4236L12.5763 12.4247ZM13.3397 6.21981C13.0691 6.50833 12.9065 6.88084 12.8792 7.27473H15.5167C15.5038 6.88445 15.3595 6.50984 15.1069 6.21122C15.0005 6.0875 14.8681 5.98862 14.719 5.9216C14.5699 5.85459 14.4079 5.82106 14.2443 5.82341C14.0747 5.82394 13.907 5.85932 13.7517 5.92734C13.5964 5.99536 13.4569 6.09456 13.3418 6.21874L13.3397 6.21981ZM20.8875 12.501C20.57 12.3849 20.2865 12.1918 20.0626 11.9391C19.8473 11.6844 19.6955 11.3826 19.6195 11.0583C19.529 10.679 19.4856 10.29 19.4901 9.90021V6.20155H18.2932V4.09386H19.4901V1.96683H22.5254V4.09386H23.8128L24.5612 6.20155H22.5243V9.58868C22.5153 9.81704 22.5474 10.0452 22.6192 10.2622C22.654 10.3434 22.7144 10.4111 22.7913 10.4549C22.8681 10.4987 22.9573 10.5163 23.0451 10.505C23.2525 10.5055 23.4573 10.4585 23.6436 10.3675C23.8238 10.2807 23.995 10.1764 24.1547 10.056L24.9364 11.8822C24.5567 12.1464 24.138 12.3501 23.6953 12.4859C23.1913 12.6333 22.6678 12.7035 22.1426 12.6944C21.7151 12.7074 21.2888 12.6415 20.8854 12.4999L20.8875 12.501ZM38.8212 12.4945C38.4974 12.3852 38.1992 12.2116 37.9446 11.9843C37.6966 11.7599 37.4986 11.4861 37.3634 11.1807C37.219 10.8412 37.148 10.4752 37.1553 10.1065C37.1475 9.7309 37.2276 9.35869 37.3893 9.01932C37.5444 8.71063 37.7651 8.43935 38.0362 8.22437C38.3217 7.99773 38.6407 7.81653 38.9819 7.68724C39.3508 7.54651 39.7346 7.44812 40.1259 7.39397C40.4961 7.33668 40.8404 7.29407 41.1589 7.26614C41.4759 7.23713 41.7692 7.21565 42.0344 7.20383V6.9965C42.0462 6.8525 42.0222 6.70783 41.9647 6.57521C41.9072 6.44259 41.8178 6.32608 41.7045 6.23592C41.4778 6.07243 41.2036 5.98752 40.9238 5.99422C40.5988 5.99221 40.2768 6.05732 39.9782 6.18543C39.669 6.31932 39.3789 6.49343 39.1156 6.70323L37.7624 5.19927C38.7516 4.31786 40.045 3.85238 41.3713 3.90049C42.3224 3.85273 43.2603 4.13773 44.0228 4.70618C44.3685 5.0193 44.6375 5.40733 44.8089 5.84037C44.9803 6.27341 45.0497 6.73988 45.0115 7.20383V12.5268H42.4647L42.221 11.8693C41.9479 12.1145 41.6302 12.3052 41.2851 12.4312C40.8475 12.5945 40.3829 12.674 39.9157 12.6653C39.5438 12.6695 39.174 12.6117 38.8212 12.4945ZM41.5093 8.75291C41.3368 8.76902 41.1567 8.79588 40.9702 8.83025C40.6775 8.85388 40.4045 8.98661 40.2057 9.20195C40.0607 9.37993 39.9815 9.6022 39.9814 9.83146C39.9783 9.94299 39.9989 10.0539 40.0421 10.1569C40.0852 10.2599 40.1498 10.3525 40.2316 10.4287C40.4271 10.5937 40.6789 10.6772 40.9346 10.6619C41.1391 10.6636 41.3421 10.6272 41.5331 10.5544C41.7101 10.4865 41.8764 10.3935 42.0269 10.2784V8.70779C41.8565 8.71853 41.6829 8.73572 41.5093 8.75291ZM32.3775 12.5268L31.0415 8.10191L29.7228 12.5268H27.4175L23.6662 1.96683H26.6012L28.7696 8.57351L30.07 4.09386H32.0476L33.3479 8.57028L34.5966 4.09386H37.702L34.7012 12.5268H32.3775Z"/>
</svg>
